<svg xmlns="http://www.w3.org/2000/svg" xmlns:xlink="http://www.w3.org/1999/xlink" width="233" height="304">
  <defs>
    <path id="a" d="M0 0h237v316H0z"/>
    <path id="c" d="M0 0h237v316H0z"/>
    <path id="e" d="M113.17325 16.0565v49.5c0 8.8304-7.1696 16-16 16h-81.0165c-8.8304 0-16-7.1696-16-16v-49.5c0-8.8304 7.1696-16 16-16h81.0165c8.8304 0 16 7.1696 16 16z"/>
  </defs>
  <g fill="none" fill-rule="evenodd" transform="translate(-2 -11)">
    <mask id="b" fill="#fff">
      <use xlink:href="#a"/>
    </mask>
    <g mask="url(#b)">
      <mask id="d" fill="#fff">
        <use xlink:href="#c"/>
      </mask>
      <g mask="url(#d)">
        <path fill="#EBE6DF" fill-rule="nonzero" d="M117 280.0004c47.305005 0 85.713 7.681599 85.713 17.1426 0 9.461001-38.407995 17.1426-85.713 17.1426-47.3050047 0-85.713-7.681599-85.713-17.1426 0-9.461001 38.4079953-17.1426 85.713-17.1426z"/>
        <path fill="#FACA78" fill-rule="nonzero" d="M174.67325 180.5565v49.5c0 8.8304-7.1696 16-16 16h-81.0165c-8.8304 0-16-7.1696-16-16v-49.5c0-8.8304 7.1696-16 16-16h81.0165c8.8304 0 16 7.1696 16 16z"/>
        <g transform="translate(61.5 164.5)">
          <mask id="f" fill="#fff">
            <use xlink:href="#e"/>
          </mask>
          <path fill="#FFDEA6" fill-rule="nonzero" d="M-6.24918 36.21339h127.249725v8.69778H-6.24918v-8.69778zm0 29.45988h127.249725v-8.69778H-6.24918v8.69778z" mask="url(#f)"/>
        </g>
        <path fill="#4993CF" fill-rule="nonzero" d="M178.4045 242.5h-120.4c-3.454 0-6.2545 2.801-6.2545 6.2555 0 3.4545 2.8005 6.255 6.2545 6.255h6.1195l-5.492 33.8915c-.5525 3.41 1.764 6.6225 5.1735 7.175 3.4105.553 6.622-1.763 7.1745-5.1735l5.816-35.893h82.3785l5.8155 35.893c.553 3.4105 3.764 5.7255 7.175 5.1735 3.4095-.552 5.7255-3.765 5.173-7.175l-5.4915-33.8915h6.558c3.454 0 6.2545-2.8005 6.2545-6.255s-2.8005-6.2555-6.2545-6.2555z"/>
        <path fill="#F18644" fill-rule="nonzero" d="M174.45769 200.611615v19.304505s-1.87089 6.981765-7.829595 6.187035c-8.69955-1.15935-26.28981-6.960525-30.73605-7.15257-4.44624-.193815-15.42909-.09735-18.152235 3.76833-2.72403 3.868335-1.75761 13.244025 4.42854 13.824585 6.185265.579675 12.13335-2.416935 23.2224 1.739025 11.08905 4.156845 26.842935 8.60397 37.475325 0 10.631505-8.6022 8.794245-24.262275-2.03019-32.768895l-6.378195-4.902015z"/>
        <path fill="#F18644" fill-rule="nonzero" d="M61.63521 200.611615v19.304505s2.27799 6.981765 8.236695 6.187035c8.69955-1.15935 26.28981-6.960525 30.73605-7.15257 4.44624-.193815 15.42909-.09735 18.152235 3.76833 2.72403 3.868335 1.75761 13.244025-4.42854 13.824585-6.185265.579675-12.13335-2.416935-23.2224 1.739025-11.08905 4.156845-26.842935 8.60397-37.475325 0-10.631505-8.6022-8.794245-24.262275 2.03019-32.768895l5.971095-4.902015z"/>
        <path fill="#F6914E" fill-rule="nonzero" d="M105.533865 297.540355c-4.298445 0-7.783575-4.820595-7.783575-10.76514V241.3756c0-5.94543 3.48513-10.766025 7.783575-10.766025s7.78269 4.820595 7.78269 10.766025v45.399615c0 5.944545-3.484245 10.76514-7.78269 10.76514zm23.200275 0c4.298445 0 7.783575-4.820595 7.783575-10.76514V241.3756c0-5.94543-3.48513-10.766025-7.783575-10.766025s-7.78269 4.820595-7.78269 10.766025v45.399615c0 5.944545 3.484245 10.76514 7.78269 10.76514z"/>
        <path fill="#4A5160" fill-rule="nonzero" d="M113.318325 289.770055v4.40199c0 2.0532-1.66557 3.717885-3.71877 3.717885H82.60617c-2.34348 0-4.24269-1.89921-4.24269-4.24269v-2.521365c0-2.34348 1.89921-4.243575 4.24269-4.243575h27.8244c1.595655 0 2.887755 1.292985 2.887755 2.887755zm38.555025-2.887755h-28.243005c-1.478835 0-2.678895 1.199175-2.678895 2.67801v4.82148c0 1.937265 1.57176 3.50814 3.509025 3.50814h27.412875c2.227545 0 4.034715-1.806285 4.034715-4.03383v-2.93997c0-2.227545-1.80717-4.03383-4.034715-4.03383z"/>
        <path fill="#F47C30" fill-rule="nonzero" d="M170.468085 38.68582c-8.229615-4.052415-18.716865.269925-25.73757 14.022825 1.44786-20.68776-2.452335-32.84412-17.649555-35.24424-15.373335-2.43021-21.44709 9.957135-23.53569 31.08651-.675255-.921285-1.35936-1.845225-2.059395-2.77536-15.81672-21.021405-34.064535-25.361445-45.89079-14.18478C43.60776 42.91789 48.55491 61.75246 69.670125 78.45241c19.41336 15.353865 35.93631 24.497685 46.086375 14.713125.29559-.28497.570825-.577905.83367-.877035 1.307145.70446 2.678895 1.13811 4.10463 1.262895 6.83928.59472 13.46616-5.54364 18.04338-15.43086.519495 5.18433 2.645265 9.234975 6.767595 11.265165 8.962395 4.41261 20.051445-4.41969 27.851835-17.93541 9.95094-17.245995 6.071985-28.35186-2.889525-32.76447z"/>
        <path fill="#F6914E" fill-rule="nonzero" d="M177.13656 72.557425H59.466075c-30.14841 0-48.267015 33.453885-31.79805 58.708245l33.887535 52.483155.344265.17169h112.8021v-.158415l34.232685-52.49643c16.468965-25.25436-1.64964-58.708245-31.79805-58.708245z"/>
        <g fill-rule="nonzero">
          <path fill="#74859E" d="M-2.745 7.6825h242.090865v310.340295H-2.745V7.6825zm0 310.340295h242.090865V7.6825H-2.745v310.340295zm221.877465-225.85377c-.055755-.18939-5.732145-19.166445-21.263895-37.866495-14.27151-17.182275-40.066605-37.6656-81.90498-37.6656-33.609645 0-60.39417 12.690015-79.60929 37.714275-14.34408 18.679695-18.81864 37.53816-18.862005 37.72578l-3.21432-.7434c.18408-.797385 4.684305-19.74966 19.45938-38.99133C47.3991 34.54756 72.75435 13.336765 115.96359 13.336765c43.17738 0 69.797295 21.18513 84.525465 38.95593 15.929115 19.221315 21.577185 38.153235 21.80994 38.95062l-3.16653.92571z"/>
          <path fill="#4592D1" d="M11.507925 89.368885h10.56513v37.946145h-10.56513c-4.946265 0-8.9562-4.01082-8.9562-8.95797V98.32597c0-4.946265 4.009935-8.957085 8.9562-8.957085zm213.5859 38.429355h-10.56513V89.85298h10.56513c4.946265 0 8.9562 4.009935 8.9562 8.9562v20.03109c0 4.94715-4.009935 8.95797-8.9562 8.95797z"/>
          <path fill="#565867" d="M20.3535 132.88522c-2.999265 0-5.429475-2.431095-5.429475-5.43036V89.712265c0-2.999265 2.43021-5.43036 5.429475-5.43036 2.99838 0 5.429475 2.431095 5.429475 5.43036v37.742595c0 2.999265-2.431095 5.43036-5.429475 5.43036zm195.89475-48.603315c2.999265 0 5.43036 2.431095 5.43036 5.43036v37.74348c0 2.99838-2.431095 5.429475-5.43036 5.429475-2.999265 0-5.429475-2.431095-5.429475-5.429475v-37.74348c0-2.999265 2.43021-5.43036 5.429475-5.43036zM25.66173 70.83256c-.538965 0-1.085895-.13275-1.59123-.41064-1.59477-.88146-2.174445-2.88864-1.29387-4.48341 8.14023-14.750295 18.70359-26.79603 31.39449-35.80179 17.251305-12.240435 38.0019-18.447825 61.674765-18.447825 52.037115 0 80.99874 29.37492 96.129585 54.01686.954915 1.55229.46905 3.58425-1.08324 4.537395-1.55229.954915-3.585135.46905-4.53828-1.084125-14.25204-23.207355-41.521545-50.870685-90.508065-50.870685-48.9582 0-74.493105 27.64563-87.291975 50.838825-.6018 1.09032-1.72929 1.705395-2.89218 1.705395z"/>
        </g>
        <g fill-rule="nonzero">
          <path fill="#F47C30" d="M121.28598 150.40999c-36.259335 0-50.537925-21.18867-51.12822-22.090485-1.87974-2.87271-1.075275-6.725115 1.79655-8.604855 2.86209-1.87089 6.6906-1.082355 8.578305 1.760265.5133.75048 11.631555 16.50348 40.753365 16.50348 28.32 0 35.476995-14.927295 35.767275-15.56184 1.33635-3.16299 4.96308-4.602885 8.126955-3.266535 3.16122 1.335465 4.62501 5.02149 3.28866 8.18448-.39648.942525-10.17042 23.07549-47.18289 23.07549z"/>
          <path fill="#4A5160" d="M103.239945 123.315715c-7.611885 0-13.80423-6.19323-13.80423-13.806v-1.533705c0-.84783.68676-1.53459 1.533705-1.53459.84783 0 1.53459.68676 1.53459 1.53459v1.533705c0 5.921535 4.815285 10.737705 10.735935 10.737705 5.919765 0 10.73682-4.81617 10.73682-10.737705v-1.533705c0-.84783.68676-1.53459 1.533705-1.53459.846945 0 1.533705.68676 1.533705 1.53459v1.533705c0 7.61277-6.192345 13.806-13.80423 13.806zm30.676755 0c7.611 0 13.803345-6.19323 13.803345-13.806v-1.533705c0-.84783-.685875-1.53459-1.533705-1.53459-.846945 0-1.533705.68676-1.533705 1.53459v1.533705c0 5.921535-4.81617 10.737705-10.735935 10.737705-5.921535 0-10.73682-4.81617-10.73682-10.737705v-1.533705c0-.84783-.68676-1.53459-1.53459-1.53459-.846945 0-1.533705.68676-1.533705 1.53459v1.533705c0 7.61277 6.192345 13.806 13.805115 13.806zm-12.628065 22.432095c33.95568 0 42.539295-19.401855 42.88887-20.226675.333645-.79119-.036285-1.70274-.827475-2.036385-.790305-.337185-1.701855.0354-2.034615.825705-.07788.18408-8.111025 18.329235-40.02678 18.329235-16.732695 0-27.97308-5.04981-34.45659-9.286305C79.8078 128.76466 76.68906 124.10779 76.6572 124.06177c-.469935-.71508-1.431045-.91863-2.14878-.44604-.717735.46905-.91863 1.43193-.44958 2.151435.533655.81597 13.46085 19.980645 47.229795 19.980645z"/>
        </g>
      </g>
    </g>
  </g>
</svg>
